HIERARCHY
ROOT hip
{
  OFFSET 0 0 0
  CHANNELS 6 Xposition Yposition Zposition Zrotation Yrotation Xrotation
  JOINT abdomen
  {
    OFFSET 0 20.6881 -0.73152
    CHANNELS 3 Zrotation Xrotation Yrotation
    JOINT chest
    {
      OFFSET 0 11.7043 -0.48768
      CHANNELS 3 Zrotation Xrotation Yrotation
      JOINT neck
      {
        OFFSET 0 22.1894 -2.19456
        CHANNELS 3 Zrotation Xrotation Yrotation
        JOINT head
        {
          OFFSET -0.24384 7.07133 1.2192
          CHANNELS 3 Zrotation Xrotation Yrotation
          JOINT leftEye
          {
            OFFSET 4.14528 8.04674 8.04672
            CHANNELS 3 Zrotation Xrotation Yrotation
            End Site
            {
              OFFSET 1 0 0
            }
          }
          JOINT rightEye
          {
            OFFSET -3.6576 8.04674 8.04672
            CHANNELS 3 Zrotation Xrotation Yrotation
            End Site
            {
              OFFSET 1 0 0
            }
          }
        }
      }
      JOINT rCollar
      {
        OFFSET -2.68224 19.2634 -4.8768
        CHANNELS 3 Zrotation Xrotation Yrotation
        JOINT rShldr
        {
          OFFSET -8.77824 -1.95073 1.46304
          CHANNELS 3 Zrotation Xrotation Yrotation
          JOINT rForeArm
          {
            OFFSET -28.1742 -1.7115 0.48768
            CHANNELS 3 Zrotation Xrotation Yrotation
            JOINT rHand
            {
              OFFSET -22.5879 0.773209 7.07136
              CHANNELS 3 Zrotation Xrotation Yrotation
              JOINT rThumb1
              {
                OFFSET -1.2192 -0.487915 3.41376
                CHANNELS 3 Zrotation Xrotation Yrotation
                JOINT rThumb2
                {
                  OFFSET -3.37035 -0.52449 3.41376
                  CHANNELS 3 Zrotation Xrotation Yrotation
                  End Site
                  {
                    OFFSET -1.78271 -1.18214 1.43049
                  }
                }
              }
              JOINT rIndex1
              {
                OFFSET -7.75947 0.938293 5.60832
                CHANNELS 3 Zrotation Xrotation Yrotation
                JOINT rIndex2
                {
                  OFFSET -2.54057 -0.884171 1.56538
                  CHANNELS 3 Zrotation Xrotation Yrotation
                  End Site
                  {
                    OFFSET -1.62519 -0.234802 1.16502
                  }
                }
              }
              JOINT rMid1
              {
                OFFSET -8.24714 1.18213 3.41376
                CHANNELS 3 Zrotation Xrotation Yrotation
                JOINT rMid2
                {
                  OFFSET -3.10165 -0.590103 1.0647
                  CHANNELS 3 Zrotation Xrotation Yrotation
                  End Site
                  {
                    OFFSET -2.48547 -0.328903 0.83742
                  }
                }
              }
              JOINT rRing1
              {
                OFFSET -8.82822 0.546677 1.51678
                CHANNELS 3 Zrotation Xrotation Yrotation
                JOINT rRing2
                {
                  OFFSET -2.60934 -0.819778 -0.0198488
                  CHANNELS 3 Zrotation Xrotation Yrotation
                  End Site
                  {
                    OFFSET -2.33842 -0.294052 0.168128
                  }
                }
              }
              JOINT rPinky1
              {
                OFFSET -8.27202 -0.0477905 -0.4584
                CHANNELS 3 Zrotation Xrotation Yrotation
                JOINT rPinky2
                {
                  OFFSET -1.82734 -0.647385 -0.700984
                  CHANNELS 3 Zrotation Xrotation Yrotation
                  End Site
                  {
                    OFFSET -1.69225 -0.51767 -0.607171
                  }
                }
              }
            }
          }
        }
      }
      JOINT lCollar
      {
        OFFSET 2.68224 19.2634 -4.8768
        CHANNELS 3 Zrotation Xrotation Yrotation
        JOINT lShldr
        {
          OFFSET 8.77824 -1.95073 1.46304
          CHANNELS 3 Zrotation Xrotation Yrotation
          JOINT lForeArm
          {
            OFFSET 28.1742 -1.7115 0.48768
            CHANNELS 3 Zrotation Xrotation Yrotation
            JOINT lHand
            {
              OFFSET 22.5879 0.773209 7.07136
              CHANNELS 3 Zrotation Xrotation Yrotation
              JOINT lThumb1
              {
                OFFSET 1.2192 -0.487915 3.41376
                CHANNELS 3 Zrotation Xrotation Yrotation
                JOINT lThumb2
                {
                  OFFSET 3.37035 -0.52449 3.41376
                  CHANNELS 3 Zrotation Xrotation Yrotation
                  End Site
                  {
                    OFFSET 1.78271 -1.18214 1.43049
                  }
                }
              }
              JOINT lIndex1
              {
                OFFSET 7.75947 0.938293 5.60832
                CHANNELS 3 Zrotation Xrotation Yrotation
                JOINT lIndex2
                {
                  OFFSET 2.54057 -0.884171 1.56538
                  CHANNELS 3 Zrotation Xrotation Yrotation
                  End Site
                  {
                    OFFSET 1.62519 -0.234802 1.16502
                  }
                }
              }
              JOINT lMid1
              {
                OFFSET 8.24714 1.18213 3.41376
                CHANNELS 3 Zrotation Xrotation Yrotation
                JOINT lMid2
                {
                  OFFSET 3.10165 -0.590103 1.0647
                  CHANNELS 3 Zrotation Xrotation Yrotation
                  End Site
                  {
                    OFFSET 2.48547 -0.328903 0.83742
                  }
                }
              }
              JOINT lRing1
              {
                OFFSET 8.82822 0.546677 1.51678
                CHANNELS 3 Zrotation Xrotation Yrotation
                JOINT lRing2
                {
                  OFFSET 2.60934 -0.819778 -0.0198488
                  CHANNELS 3 Zrotation Xrotation Yrotation
                  End Site
                  {
                    OFFSET 2.33842 -0.294052 0.168128
                  }
                }
              }
              JOINT lPinky1
              {
                OFFSET 8.27202 -0.0477905 -0.4584
                CHANNELS 3 Zrotation Xrotation Yrotation
                JOINT lPinky2
                {
                  OFFSET 1.82734 -0.647385 -0.700984
                  CHANNELS 3 Zrotation Xrotation Yrotation
                  End Site
                  {
                    OFFSET 1.69225 -0.51767 -0.607171
                  }
                }
              }
            }
          }
        }
      }
    }
  }
  JOINT rButtock
  {
    OFFSET -8.77824 4.35084 1.2192
    CHANNELS 3 Zrotation Xrotation Yrotation
    JOINT rThigh
    {
      OFFSET 0 -1.70687 -2.19456
      CHANNELS 3 Zrotation Xrotation Yrotation
      JOINT rShin
      {
        OFFSET 0 -36.8199 0.73152
        CHANNELS 3 Zrotation Xrotation Yrotation
        JOINT rFoot
        {
          OFFSET 0.73152 -45.1104 -5.12064
          CHANNELS 3 Zrotation Xrotation Yrotation
          End Site
          {
            OFFSET -1.1221 -3.69964 12.103
          }
        }
      }
    }
  }
  JOINT lButtock
  {
    OFFSET 8.77824 4.35084 1.2192
    CHANNELS 3 Zrotation Xrotation Yrotation
    JOINT lThigh
    {
      OFFSET 0 -1.70687 -2.19456
      CHANNELS 3 Zrotation Xrotation Yrotation
      JOINT lShin
      {
        OFFSET 0 -36.8199 0.73152
        CHANNELS 3 Zrotation Xrotation Yrotation
        JOINT lFoot
        {
          OFFSET -0.73152 -45.1104 -5.12064
          CHANNELS 3 Zrotation Xrotation Yrotation
          End Site
          {
            OFFSET 1.1221 -3.69964 12.103
          }
        }
      }
    }
  }
}
MOTION
Frames:	6
Frame Time:	0.00833333
0.3357 82.6293 -27.116400000000002 4.547988 -36.349869 2.045007 -0.351641 -3.694536 -71.396586 5.711242 -9.736157 69.995343 -6.700499 39.162632 -152.305902 -2.459707 38.172073 158.370955 0.002091 0.0 0.00296 0.002091 0.0 0.00296 -159.221384 -48.264357 170.466127 125.621835 -10.367011 -159.507316 -66.965359 -16.653565 43.242522 13.187733 -33.044492 5.837609 -171.603873 -9.286028 89.950086 -96.396375 12.023874 38.907749 -151.929237 -18.230849 121.314535 -9.075613 33.180229 0.959773 -145.287903 29.523961 132.691422 -172.160282 -31.380179 143.705778 -145.107898 3.75909 179.687933 11.147695 18.202751 -6.867378 0.098654 0.258253 0.091678 -24.247977 -41.352994 -24.926296 -0.117747 -0.714094 0.157758 99.393306 -15.221689 -170.1693 -24.268967 -73.879697 66.348333 -142.417136 -46.119184 -132.872272 -76.384531 -49.199743 -28.872067 158.102186 -31.747683 -129.282587 100.825184 37.73343 -85.161299 171.383794 -22.839661 -115.18605 89.83513 60.701325 -81.2627 10.146859 31.467467 -8.404823 31.708693 -66.108912 46.283498 141.416293 61.984748 -160.543712 -9.909591 32.23812 -8.581496 138.327356 -13.850101 135.316793 179.996818 75.748872 0.002618 169.87742 64.878033 180.0 -9.806134 -60.154366 -39.003869 -147.016915 11.743741 173.899404 -0.0 0.00019 0.001953 -2.704796 -30.91588 150.744631 49.992327 -31.900197 105.8658 92.207488 -4.563084 164.406262
0.3104 82.95660000000001 -28.797099999999997 2.40393 -39.615036 3.731955 -0.169438 -2.17936 -4.446693 -4.893443 -10.316526 1.377412 -13.488852 34.263931 -105.690886 21.081904 31.932482 110.109565 0.001439 0.0 0.003763 0.001439 0.0 0.003763 -149.851064 22.601886 154.914202 -97.258766 17.548594 54.43619 68.299188 -25.664481 -75.962148 -176.543664 25.076496 145.0452 -7.758742 7.439009 1.682046 -128.806808 -27.3752 111.418187 5.741823 -9.851029 -2.891233 6.005465 9.406002 1.149936 -86.295477 60.959158 77.857051 -155.245274 16.68583 139.433248 -74.839951 72.961353 92.827829 -73.497394 -82.414031 -90.592214 -7.142958 -15.707601 -6.728154 -150.557097 23.974455 -146.25581 80.16655 68.370829 -83.26093 89.932927 12.957805 -87.961076 41.158895 -83.681951 128.48666 -130.080343 -54.262687 -121.562771 -1.84254 -1.827119 0.253529 128.178373 -22.286798 -114.455277 160.101448 -33.162333 -122.699386 -2.18763 19.88634 5.207847 -89.035334 -81.39304 -59.759829 -2.895778 0.367723 -0.224603 13.617687 -53.67976 25.682605 140.027288 61.439735 -158.404059 -19.452791 67.282019 -13.088442 161.460653 55.513855 148.865281 -179.65067 75.747991 -0.269239 176.722344 66.898621 -156.829567 -41.084092 -42.964727 -83.744402 -147.69979 10.648951 169.025802 -179.970947 75.749699 -0.023904 -178.058327 45.081377 -1.34794 -23.901554 42.532287 -22.780718 172.405416 -41.196957 -88.582723
0.2568 83.2994 -30.636799999999997 0.319118 -43.056149 5.40292 -0.607952 -3.048724 48.982323 -9.21894 -3.208983 -52.371602 -1.017052 38.810995 -179.644595 -15.320429 33.108123 -165.388723 -0.001721 0.0 -0.005458 -0.001431 -0.0 0.002602 -143.334949 38.771397 147.775237 80.020761 -18.729784 108.554236 -98.867211 2.404008 35.833894 46.336582 -64.024575 33.53594 -85.828808 38.632041 47.955895 170.728795 -46.531852 74.10781 -13.869923 18.815718 9.289708 -168.184529 -19.847628 109.935184 5.893231 -18.35191 -2.544958 3.100233 0.18279 0.01154 -145.099299 -1.52295 -178.649515 12.051688 29.59617 -5.64161 4.593347 13.360743 4.153187 44.890259 83.545733 -7.738167 82.877356 68.298875 -86.000715 -75.067577 -20.662125 -85.314353 -82.974898 77.196938 161.530439 -148.755312 -39.112694 -139.084486 115.533804 32.70218 -68.30518 -172.488245 -36.44511 -76.184164 -5.922018 -10.174421 2.968431 -97.162308 -61.463907 -42.945069 160.673328 -6.667958 -143.244664 -3.206934 0.040143 -0.366753 -0.001246 -0.018221 0.00789 -9.714934 -62.549557 9.175465 157.018083 56.121265 150.394374 -15.950976 43.961049 -6.466737 -0.002076 -0.000323 -0.002076 0.469204 -5.699115 -3.136088 10.64594 51.752877 163.320187 61.166678 5.939295 -179.31253 -0.004756 0.000485 -0.002378 5.587327 -35.404237 -180.0 32.139059 -45.470279 147.064309 18.210773 28.927589 80.544751
0.2845 83.5049 -32.6563 -1.733153 -46.693103 7.366145 2.412519 -2.234642 0.194629 -5.223765 -9.928422 -3.835124 7.74813 32.120848 118.944047 -26.710625 8.943151 -106.22842 0.00051 0.0 0.001448 -0.005152 -0.0 0.001779 -9.651173 34.83646 11.197945 -92.205961 -14.033046 159.333618 85.7623 -10.023602 -95.894231 -164.679872 49.388388 138.73911 -168.112737 -5.788471 89.869535 178.880699 -17.489438 92.621933 -0.328089 0.529688 0.186662 122.793857 -61.303515 65.120716 6.533947 -20.414804 -2.717623 42.539204 -69.812817 17.080703 -145.120846 0.185106 -179.187169 11.798537 26.40145 -5.990419 -44.838579 -48.034463 -43.617944 -146.154802 10.658918 -142.879564 -3.269514 -26.75589 5.240236 97.064109 -26.871625 160.989907 -68.61212 0.619449 26.462264 -174.84244 25.446734 -157.177313 178.519036 -16.064339 -89.476199 77.846992 9.053895 -24.416255 138.639603 4.674614 -114.956696 170.182286 -28.08354 -118.144547 -68.983526 -80.154154 -40.577824 154.206531 20.017919 -138.525177 -0.006703 1.770476 -0.555973 148.360442 -76.774951 171.08604 -26.969939 80.122874 -10.140837 3.075688 -10.714409 4.704327 179.999521 75.750421 0.000423 -173.926673 70.31197 -0.0 18.243017 35.894299 43.758122 -140.858391 42.365725 68.094368 179.980231 75.749703 0.013526 -169.676397 38.820829 0.0 -8.931327 60.200193 128.108233 -57.834263 -70.889458 -151.350601
0.5710999999999999 83.5418 -34.6802 -3.643063 -50.265914 9.576176 3.413333 -7.002158 -180.0 4.786545 5.301366 176.677171 -12.907912 23.748575 -49.602726 30.670646 7.713956 66.706651 0.005867 -0.0 -0.001622 -0.000198 -0.0 0.00245 3.268915 -26.755836 -5.241489 -111.000363 9.729014 -143.130742 -17.379525 33.286192 -102.700591 158.571259 -41.468736 137.11766 -4.034461 3.931807 0.754298 2.258161 -1.834319 0.860387 -27.171299 30.468864 19.890578 -0.464376 11.683112 1.108892 -36.037374 51.722322 29.833682 11.578512 -24.900043 -1.458346 -0.000464 0.063719 0.020858 -151.319618 -72.676437 -174.602677 -18.498766 -31.691408 -17.707204 -94.090787 -51.72295 -94.051481 152.136039 14.084669 -157.56537 -131.381249 -6.188843 -160.905109 55.838493 -3.522774 5.672757 -13.825922 -14.185798 -13.014866 0.543333 0.536426 -0.086637 41.865534 27.15166 -37.856996 27.420995 30.638714 -20.100299 -9.854684 -2.96136 1.820625 0.218204 0.638668 -0.123001 174.540073 -37.778592 -143.550683 -0.005522 1.854178 -0.584062 156.262982 -13.738733 -173.485687 103.688047 -45.140772 101.853565 164.862204 65.399299 146.84416 179.991573 75.749969 0.006933 -170.384715 67.773682 169.629069 2.910727 -43.802808 83.949329 156.821338 5.389783 -71.684206 179.991573 75.749969 0.006933 -166.910249 33.433804 117.797564 53.215932 -17.748399 -83.77879 78.256168 -4.165526 -12.748223
0.9492999999999999 83.5299 -36.6821 -5.842035 -53.937049 12.17415 4.276052 -7.019088 180.0 4.397942 5.409578 176.820349 -12.700694 23.308835 -48.797598 30.723658 7.47581 69.451983 0.000731 -0.0 -0.000748 0.000731 -0.0 -0.000748 -159.220062 -48.0283 170.416202 131.094028 1.815072 -156.490032 167.109387 23.570197 68.35333 172.172715 -10.929356 144.661634 -177.746813 -15.324525 89.569661 116.818911 -65.246915 88.009384 159.640293 -69.973106 102.394782 -54.850865 55.061677 44.09043 0.541182 -1.589962 -0.294602 -163.61777 -5.805932 143.457733 -145.099178 -1.520909 -178.649765 -66.686489 87.686134 80.077574 1.481483 4.003868 1.360143 15.085005 44.014795 8.724137 -4.23936 -44.742804 8.647147 105.785208 -17.269836 146.678828 -143.714258 63.562977 100.750784 42.887595 79.51868 -35.026639 -83.253571 -50.257833 -33.616674 13.682148 -71.182338 44.860753 -159.640805 -69.97328 -102.394658 -51.80035 -52.794588 -2.540615 161.153441 -8.16066 -143.465096 163.783821 -6.245746 -143.111566 0.015282 -1.32318 0.415682 -7.131741 29.095666 -4.544302 123.035129 -31.102784 120.854226 -13.732498 32.070787 -5.318773 -179.998481 75.750206 -0.0 -169.259984 67.553621 127.773104 31.67082 -36.036648 63.063487 160.095195 4.442953 -147.283618 -0.009412 0.000829 -0.004706 20.61843 -40.842992 14.138102 -17.433807 59.91828 99.165669 -105.402053 27.953235 15.264295
